<svg width="1477" height="349" viewBox="0 0 1477 349" fill="none" xmlns="http://www.w3.org/2000/svg">
<g clip-path="url(#clip0_55_2)">
<path fill-rule="evenodd" clip-rule="evenodd" d="M110.951 86.4843C194.813 23.3297 295.871 16.2601 336.859 70.6956C377.848 125.131 342.984 220.334 259.358 283.489C175.497 346.644 74.4387 353.713 33.4502 299.278C-7.5383 244.842 27.3255 149.639 110.951 86.4843ZM106.24 80.1217C198.818 10.3688 309.063 0.942752 352.642 58.913C396.222 116.883 356.647 220.099 264.07 289.852C171.492 359.369 61.247 369.03 17.6673 311.06C-25.9125 253.326 13.6627 149.875 106.24 80.1217Z" fill="#00522A"/>
<path fill-rule="evenodd" clip-rule="evenodd" d="M167.252 149.17C169.607 144.928 173.848 136.445 176.203 131.731C178.559 127.018 179.03 126.076 179.266 125.369C179.501 124.898 179.501 124.662 180.208 124.426C180.679 124.191 181.857 123.955 182.799 124.191C183.741 124.426 184.684 124.898 186.333 129.375C187.982 134.088 190.337 142.571 191.515 147.284C192.693 151.998 192.929 152.94 192.929 153.411C192.929 153.883 192.929 153.883 188.217 153.883C183.506 153.883 174.083 154.118 169.372 154.118C164.661 154.118 164.661 154.118 164.896 153.883C164.661 153.883 164.896 153.411 167.252 149.17ZM230.619 178.155C235.33 178.626 244.046 179.333 248.993 179.804C253.94 180.276 255.118 180.276 255.589 180.276C256.296 180.276 256.296 180.276 256.531 180.747C256.767 180.983 257.238 181.69 257.238 182.632C257.238 183.339 256.767 184.282 252.527 186.638C248.287 188.995 240.042 193.237 235.33 195.357C230.855 197.478 229.912 197.95 229.441 197.95C228.97 198.185 228.97 197.95 228.263 194.65C227.557 191.116 226.143 184.282 225.437 180.983C224.73 177.448 224.966 177.448 225.201 177.448C225.672 177.684 225.908 177.919 230.619 178.155ZM72.0831 158.831C92.1062 158.831 116.841 163.544 133.33 162.131C134.508 162.131 134.744 161.188 140.633 150.819C146.522 140.451 157.829 120.656 165.838 108.402C173.848 96.1481 178.559 92.142 183.741 90.7281C188.924 89.3142 194.813 90.9637 200.702 98.2689C206.591 105.574 212.245 118.299 215.307 128.904C218.37 139.272 218.605 147.52 220.49 151.526C222.374 155.532 226.143 155.768 236.979 156.475C247.815 157.182 265.718 158.596 277.497 161.188C289.275 163.78 294.693 167.315 297.049 171.085C299.64 174.856 298.933 178.626 297.52 182.397C296.107 186.167 293.515 189.702 283.15 196.064C272.785 202.427 254.647 211.382 245.46 216.33C236.273 221.279 235.802 221.986 235.566 229.763C235.566 237.539 235.802 252.385 236.037 261.811C236.273 271.237 236.273 275.479 235.095 277.835C233.917 280.192 231.561 280.663 228.735 279.956C225.908 279.485 222.61 277.835 219.312 271.944C216.25 266.289 213.187 256.391 209.418 249.557C205.885 242.959 201.173 237.539 197.404 239.424L159.007 257.805C157.594 258.512 157.358 255.213 157.122 253.563C156.887 250.736 156.651 248.143 156.416 244.609C156.18 241.074 155.473 236.832 157.122 233.769C158.771 230.941 162.305 229.291 166.545 227.877C170.55 226.463 175.025 225.521 180.208 223.4C185.39 221.279 191.044 217.98 194.106 215.623C196.933 213.267 196.933 212.089 197.404 205.726C197.875 199.599 198.582 188.523 198.111 183.104C197.64 177.684 195.991 177.448 188.688 176.977C181.621 176.27 168.901 175.091 162.54 175.327C156.18 175.563 155.945 177.212 154.767 183.575C153.589 189.937 151.233 201.249 149.584 209.261C147.935 217.273 146.758 222.457 146.051 224.814C145.344 227.17 145.109 226.935 141.104 223.164C137.099 219.394 129.561 211.853 125.792 207.847C122.023 203.605 122.259 202.663 122.259 198.892C122.494 195.122 122.73 188.288 122.494 184.989C122.259 181.69 121.788 181.925 113.307 182.397C105.533 182.397 89.515 183.104 80.0923 183.575C70.6697 184.046 73.9676 184.282 73.732 181.69C73.2609 179.097 70.1985 158.831 72.0831 158.831Z" fill="#AFCA0B"/>
<path fill-rule="evenodd" clip-rule="evenodd" d="M624.957 81.301L711.174 230.704H676.546L665.003 210.909H584.44L572.897 230.704H538.504L624.957 81.301ZM648.043 180.982L624.957 140.921L601.872 180.982H648.043ZM823.775 131.024C823.775 124.425 820.477 121.126 813.881 121.126H744.154V146.105H813.881C820.477 146.105 823.775 142.806 823.775 136.208V131.024ZM813.881 91.434C840.5 91.434 853.692 104.631 853.692 131.259V136.208C853.692 162.836 840.5 176.033 813.881 176.033H744.154V230.704H714.237V91.434H813.881ZM930.015 81.301L1016.23 230.704H981.605L970.062 210.909H889.498L877.955 230.704H843.563L930.015 81.301ZM953.101 180.982L930.015 140.921L906.93 180.982H953.101ZM1128.83 180.982V91.434H1158.75V180.982C1158.75 214.209 1142.26 230.704 1109.05 230.704H1069.24C1036.02 230.704 1019.53 214.209 1019.53 180.982H1049.45C1049.45 194.178 1056.04 200.776 1069.24 200.776H1109.05C1122.24 200.776 1128.83 194.178 1128.83 180.982ZM1178.77 180.982V141.157C1178.77 107.93 1195.26 91.434 1228.48 91.434H1268.29C1301.5 91.434 1317.99 107.93 1317.99 141.157V180.982C1317.99 214.209 1301.5 230.704 1268.29 230.704H1228.48C1195.26 230.704 1178.77 213.973 1178.77 180.982ZM1208.45 141.157V180.982C1208.45 194.178 1215.05 200.776 1228.24 200.776H1268.05C1281.24 200.776 1287.84 194.178 1287.84 180.982V141.157C1287.84 127.96 1281.24 121.362 1268.05 121.362H1228.24C1215.05 121.126 1208.45 127.724 1208.45 141.157ZM1437.19 91.434C1463.81 91.434 1477 104.631 1477 131.259H1447.08C1447.08 124.661 1443.79 121.362 1437.19 121.362H1377.59C1371 121.362 1367.7 124.661 1367.7 131.259V136.208C1367.7 142.806 1371 146.105 1377.59 146.105H1437.19C1463.81 146.105 1477 159.302 1477 185.93V190.879C1477 217.508 1463.81 230.704 1437.19 230.704H1377.59C1350.97 230.704 1337.78 217.508 1337.78 190.879H1367.7C1367.7 197.477 1371 200.776 1377.59 200.776H1437.19C1443.79 200.776 1447.08 197.477 1447.08 190.879V185.93C1447.08 179.332 1443.79 176.033 1437.19 176.033H1377.59C1350.97 176.033 1337.78 162.836 1337.78 136.208V131.259C1337.78 104.631 1350.97 91.434 1377.59 91.434H1437.19ZM491.156 121.126V230.704H461.239V121.126H406.587V91.434H545.807V121.362H491.156V121.126Z" fill="#00532C"/>
<path fill-rule="evenodd" clip-rule="evenodd" d="M1246.85 83.892C1247.56 82.2424 1247.79 79.8859 1248.5 78.0007C1255.33 59.6198 1274.65 64.0972 1284.78 49.0155C1292.79 36.526 1295.61 11.7826 1287.37 0L1287.13 1.88521C1287.13 27.0999 1255.33 9.66172 1238.37 29.4564C1225.42 44.3025 1231.3 71.8737 1240.96 86.9554C1241.67 85.0702 1241.67 80.1215 1241.67 77.5294C1244.02 42.4173 1274.41 40.7677 1280.3 26.6286C1273.71 32.0486 1276.06 31.5773 1266.4 36.0547C1253.92 41.946 1244.26 49.4868 1239.55 62.212C1238.84 63.8616 1238.37 67.632 1237.66 68.8103C1235.54 63.3903 1236.25 53.4929 1237.19 49.0155C1238.14 42.8886 1240.49 37.7043 1245.67 32.9912C1256.04 23.5652 1267.11 24.9791 1277 22.3869C1282.66 20.973 1282.42 20.0304 1286.19 17.4382C1286.9 23.0939 1284.07 32.2843 1282.19 36.526C1274.41 53.9642 1259.1 51.372 1250.15 64.8042C1247.56 69.0459 1244.5 76.8224 1246.85 83.892Z" fill="#92C020"/>
</g>
<defs>
<clipPath id="clip0_55_2">
<rect width="1477" height="349" fill="white"/>
</clipPath>
</defs>
</svg>
